<svg id="_0029_bug_fixed" xmlns="http://www.w3.org/2000/svg" viewBox="0 0 500 500" data-imageid="bug-fixing-71" imageName="Bug Fixing" class="illustrations_image" style="width: 166px;"><defs><style>.cls-1_bug-fixing-71{fill:#f4a28c;}.cls-2_bug-fixing-71{fill:#a5a5a5;}.cls-3_bug-fixing-71{opacity:.03;}.cls-3_bug-fixing-71,.cls-4_bug-fixing-71{fill:#000001;}.cls-5_bug-fixing-71,.cls-6_bug-fixing-71{fill:#fff;}.cls-5_bug-fixing-71,.cls-7_bug-fixing-71{opacity:.3;}.cls-6_bug-fixing-71{opacity:.56;}.cls-8_bug-fixing-71{fill:#e6e6e6;}.cls-9_bug-fixing-71{fill:#ce8172;opacity:.31;}.cls-10_bug-fixing-71{opacity:.58;}.cls-10_bug-fixing-71,.cls-11_bug-fixing-71,.cls-12_bug-fixing-71{fill:#68e1fd;}.cls-7_bug-fixing-71{fill:#c9c9c9;}.cls-13_bug-fixing-71{fill:#24285b;}.cls-4_bug-fixing-71{opacity:.08;}.cls-11_bug-fixing-71{opacity:.73;}.cls-14_bug-fixing-71{fill:#ffd200;}</style></defs><ellipse id="sd_bug-fixing-71" class="cls-3_bug-fixing-71" cx="254.76" cy="417.02" rx="216.65" ry="36.88"/><g id="monitor_bug-fixing-71"><polygon class="cls-2_bug-fixing-71" points="232.68 304.5 213.11 406.53 308.61 406.53 289.03 304.5 232.68 304.5"/><path class="cls-8_bug-fixing-71" d="m79.6,44.93h372.81v285.97H88.41c-4.86,0-8.81-3.95-8.81-8.81V44.93h0Z"/><rect class="cls-8_bug-fixing-71" x="200.06" y="396.44" width="121.01" height="20.58"/><rect class="cls-6_bug-fixing-71" x="79.6" y="44.93" width="372.81" height="253.1"/><path class="cls-4_bug-fixing-71" d="m88.71,178.74s8.97-7.34,11.67,6.42c2.69,13.76-2.14,31.06,7.84,42.88,9.98,11.81,46.56-26.79,65.05,38.04l7.47,7.36,26.14-22.03,39.88,15.18,65.41-13.1,16.61-68.89,8.94-8.25s32.48,54.9-18.18,101.76c0,0-35.98,30.98-93.96,7.71l-11.44-5.93-36.21,51.02-30.06-.36-27.29-44.72-35.11-68.22-4.86-38.2,8.11-.66Z"/><circle class="cls-13_bug-fixing-71" cx="108.22" cy="76.63" r="7.84"/><circle class="cls-12_bug-fixing-71 targetColor" cx="131.55" cy="76.63" r="7.84" style="fill: rgb(0, 0, 0);"/><circle class="cls-14_bug-fixing-71" cx="153.53" cy="76.63" r="7.84"/><rect class="cls-2_bug-fixing-71" x="370.45" y="255.76" width="49.83" height="15.11"/><rect class="cls-7_bug-fixing-71" x="370.45" y="88.3" width="49.83" height="144.54"/></g><g id="plant_bug-fixing-71"><path class="cls-10_bug-fixing-71 targetColor" d="m377.42,385.13s-18.04-4.85-22.03-21.6c0,0,27.9-5.76,28.81,23.05l-6.78-1.45Z" style="fill: rgb(0, 0, 0);"/><path class="cls-11_bug-fixing-71 targetColor" d="m379.62,383.33s-12.67-19.85-1.67-38.51c0,0,21.29,13.39,11.96,38.51h-10.29Z" style="fill: rgb(0, 0, 0);"/><path class="cls-12_bug-fixing-71 targetColor" d="m382.87,383.33s6.56-21.05,26.65-25.11c0,0,3.83,13.63-12.92,25.11h-13.74Z" style="fill: rgb(0, 0, 0);"/><polygon class="cls-13_bug-fixing-71" points="369.8 382.91 373.55 407.89 396.56 407.89 399.85 382.91 369.8 382.91"/></g><g id="person_bug-fixing-71"><path class="cls-12_bug-fixing-71 targetColor" d="m82.49,412.8s-3.19,3.89-1.31,7.75c1.88,3.86-1.14,6.97-4.04,4.22-2.91-2.75-3.75-13.8-3.75-13.8l5.45-2.93,3.66,4.76Z" style="fill: rgb(0, 0, 0);"/><path class="cls-12_bug-fixing-71 targetColor" d="m115.46,223.5s22.61-.26,31.51,21.09c8.9,21.35,9.79,55.46,9.79,55.46l40.95-26.67-46.24,44.87-18.44-23.54-17.57-71.21Z" style="fill: rgb(0, 0, 0);"/><path class="cls-5_bug-fixing-71" d="m115.46,223.5s22.61-.26,31.51,21.09c8.9,21.35,9.79,55.46,9.79,55.46l40.95-26.67-46.24,44.87-18.44-23.54-17.57-71.21Z"/><path class="cls-12_bug-fixing-71 targetColor" d="m175.72,384.36s1.95,4.64,6.24,4.78,5.63,4.26,1.84,5.55c-3.79,1.29-13.95-3.14-13.95-3.14l-.04-6.18,5.91-1.01Z" style="fill: rgb(0, 0, 0);"/><path class="cls-1_bug-fixing-71" d="m84.4,187.92s5.27,7.7,6.94,13.86c.68,2.5-.82,5.11-3.33,5.75-3.11.8-7.55.97-10.87-2.81l-6.43-5.73s-3.9-3.73-1.18-9.61c2.73-5.88,11.9-6.3,14.87-1.45Z"/><polygon class="cls-1_bug-fixing-71" points="73.61 198.77 77.87 224.16 95.09 224.95 85.07 205.12 73.61 198.77"/><path class="cls-1_bug-fixing-71" d="m87.47,192.95l4.03,1.86c1,.46,1.17,1.8.34,2.5l-2.78,2.34-1.59-6.69Z"/><path class="cls-9_bug-fixing-71" d="m86.57,208.1s-3.61.25-5.97-1.26c0,0,.49,6.68,8.84,6.94l-2.87-5.68Z"/><path class="cls-12_bug-fixing-71 targetColor" d="m43.68,243.97c19.94-25.78,65.69-28.56,87.26-13.74,21.27,14.61,11.06,101.03,11.06,101.03l-51.26,14.13s-76.09-57.67-47.05-101.42Z" style="fill: rgb(0, 0, 0);"/><path class="cls-13_bug-fixing-71" d="m90.74,345.4l6.42,15.5c1.71,9.15-.57,18.59-6.27,25.94l-15.97,20.62,8.83,6.32,23.2-18.47c9.62-7.66,15.24-19.26,15.3-31.55l.04-7.94,8.59-20.54-40.14,10.13Z"/><path class="cls-4_bug-fixing-71" d="m67.06,236.6s24.62,9.91,22.38,35.23c-2.24,25.32,5.28,40.99,44.89,39.48l-6.34,23.73-37.25,10.35h0c-12.55-12.27-23.55-26.04-32.73-41l-2.41-3.92,11.65-33.55-.19-30.32Z"/><path class="cls-13_bug-fixing-71" d="m90.74,345.4l23.94,17.38,31.65-9.8c6.52-2.02,13.39,1.88,14.99,8.51l5.85,24.12,10.73-.91-3.47-32.58c-1.3-12.15-11.46-21.41-23.68-21.58h0c-16.1-.22-32.07,2.93-46.88,9.24l-13.15,5.61Z"/><path class="cls-13_bug-fixing-71" d="m74.82,205.98l-1.62-1.07c-4.52-3-9.65-4.8-14.91-6.14-.54-.14-1.13-.38-1.75-.77-3.13-1.95-3.32-5.89-.7-8.49,3.75-3.72-2.23-4.85-.97-8.71,1.11-3.39,4.09-3.66,6.56-1.09s6.73.6,4.85-2.44c-1.93-3.11.74-5.49,5.04-4.45,4.3,1.04,3.54,6.38,7.03,2.08,3.5-4.3,8.03-5.04,9.1-.3,1.07,4.75,5.02,10.43-3.85,12.33-8.87,1.9-11.25-2.21-11.56,3.71-.3,5.54,7.34,7.08,2.77,15.34Z"/><path class="cls-1_bug-fixing-71" d="m76.7,196.17s-3.35-2.84-5.27-.14c-1.93,2.7,2.88,6.82,6.29,3.86l-1.02-3.71Z"/><rect class="cls-13_bug-fixing-71" x="174.83" y="229.63" width="22.54" height="78.95" transform="translate(242.44 -53.2) rotate(44.58)"/><rect class="cls-5_bug-fixing-71" x="174.83" y="229.63" width="22.54" height="78.95" transform="translate(242.44 -53.2) rotate(44.58)"/><rect class="cls-13_bug-fixing-71" x="132.26" y="261.79" width="37.09" height="88.38" transform="translate(258.17 -17.81) rotate(44.58)"/><path class="cls-14_bug-fixing-71" d="m315.89,137.83c-31.79-31.33-82.96-30.96-114.3.83-31.33,31.79-30.96,82.96.83,114.3,31.79,31.33,82.96,30.96,114.3-.83,31.33-31.79,30.96-82.96-.83-114.3Zm-99.1,100.56c-23.75-23.4-24.03-61.62-.62-85.37,23.4-23.75,61.62-24.03,85.37-.62,23.75,23.4,24.03,61.62.62,85.37-23.4,23.75-61.62,24.03-85.37.62Z"/><path class="cls-1_bug-fixing-71" d="m141.68,322.95l1.65,8.38s14.91,2.52,17.65-7c2.74-9.52-16.46-6.15-19.3-1.37Z"/><path class="cls-12_bug-fixing-71 targetColor" d="m70.41,238.54c-7.06-5.31-17.05-4.07-23.16,2.31-13.74,14.35-30.61,55.4-10.18,82.41,25.58,33.81,60.59,22.02,106.26,8.07l-2.14-10.87s-85.16,11.46-75.84-25.29c7.38-29.09,17.47-47.29,5.07-56.62Z" style="fill: rgb(0, 0, 0);"/><path class="cls-5_bug-fixing-71" d="m70.41,238.54c-7.06-5.31-17.05-4.07-23.16,2.31-13.74,14.35-30.61,55.4-10.18,82.41,25.58,33.81,60.59,22.02,106.26,8.07l-2.14-10.87s-85.16,11.46-75.84-25.29c7.38-29.09,17.47-47.29,5.07-56.62Z"/><path class="cls-1_bug-fixing-71" d="m197.71,273.38c.35.52,16.03-2.71,10.9-11.06-5.13-8.35-14.43,5.74-10.9,11.06Z"/><path class="cls-12_bug-fixing-71 targetColor" d="m254.28,178.74l-7.02-1.16c.01-.06.98-6.46-2.03-10.57-1.39-1.89-3.43-3.01-6.25-3.43l1.05-7.04c4.75.71,8.45,2.83,10.98,6.31,4.77,6.55,3.34,15.51,3.28,15.89Z" style="fill: rgb(0, 0, 0);"/><path class="cls-12_bug-fixing-71 targetColor" d="m219.89,191.37l-5.77-4.17c5-6.91,10.77-10.56,17.14-10.84,10.17-.45,17.52,7.98,17.83,8.34l-5.37,4.67c-.05-.06-5.55-6.25-12.18-5.9-4.08.19-7.99,2.85-11.65,7.9Z" style="fill: rgb(0, 0, 0);"/><path class="cls-12_bug-fixing-71 targetColor" d="m224.06,215.61l-6.98-1.41c1.69-8.36,5.43-14.07,11.11-16.96,9-4.58,19.25.01,19.68.21l-2.96,6.47,1.48-3.24-1.47,3.24c-.07-.03-7.62-3.36-13.53-.33-3.63,1.86-6.1,5.91-7.33,12.01Z" style="fill: rgb(0, 0, 0);"/><path class="cls-12_bug-fixing-71 targetColor" d="m228.71,234.98c-1.16-8.45.48-15.07,4.89-19.68,6.99-7.29,18.18-6.34,18.65-6.29l-.65,7.09c-.08,0-8.3-.66-12.88,4.16-2.81,2.96-3.81,7.59-2.96,13.76l-7.05.97Z" style="fill: rgb(0, 0, 0);"/><path class="cls-12_bug-fixing-71 targetColor" d="m264.84,176.6c-.06-.38-1.49-9.34,3.28-15.89,2.53-3.48,6.22-5.6,10.98-6.31l1.05,7.04c-2.82.42-4.87,1.54-6.25,3.43-3.01,4.11-2.04,10.5-2.03,10.57l-7.02,1.16Z" style="fill: rgb(0, 0, 0);"/><path class="cls-12_bug-fixing-71 targetColor" d="m302.53,189.23c-3.65-5.05-7.57-7.71-11.65-7.9-6.57-.31-12.13,5.84-12.18,5.9l-5.37-4.67c.31-.36,7.7-8.8,17.83-8.34,6.37.28,12.14,3.93,17.14,10.84l-5.77,4.17Z" style="fill: rgb(0, 0, 0);"/><path class="cls-12_bug-fixing-71 targetColor" d="m298.36,213.47c-1.24-6.13-3.72-10.17-7.36-12.03-5.87-2.99-13.41.3-13.49.34l-2.96-6.47c.43-.2,10.68-4.79,19.68-.21,5.68,2.89,9.42,8.6,11.11,16.96l-6.98,1.41Z" style="fill: rgb(0, 0, 0);"/><path class="cls-12_bug-fixing-71 targetColor" d="m293.72,232.84l-7.05-.97c.85-6.19-.15-10.83-2.98-13.78-4.56-4.76-12.76-4.14-12.84-4.13l-.66-7.09c.47-.05,11.66-1,18.65,6.29,4.41,4.6,6.06,11.22,4.89,19.68Z" style="fill: rgb(0, 0, 0);"/><path class="cls-4_bug-fixing-71" d="m254.28,178.74l-7.02-1.16c.01-.06.98-6.46-2.03-10.57-1.39-1.89-3.43-3.01-6.25-3.43l1.05-7.04c4.75.71,8.45,2.83,10.98,6.31,4.77,6.55,3.34,15.51,3.28,15.89Z"/><path class="cls-4_bug-fixing-71" d="m219.89,191.37l-5.77-4.17c5-6.91,10.77-10.56,17.14-10.84,10.17-.45,17.52,7.98,17.83,8.34l-5.37,4.67c-.05-.06-5.55-6.25-12.18-5.9-4.08.19-7.99,2.85-11.65,7.9Z"/><path class="cls-4_bug-fixing-71" d="m224.06,215.61l-6.98-1.41c1.69-8.36,5.43-14.07,11.11-16.96,9-4.58,19.25.01,19.68.21l-2.96,6.47,1.48-3.24-1.47,3.24c-.07-.03-7.62-3.36-13.53-.33-3.63,1.86-6.1,5.91-7.33,12.01Z"/><path class="cls-4_bug-fixing-71" d="m228.71,234.98c-1.16-8.45.48-15.07,4.89-19.68,6.99-7.29,18.18-6.34,18.65-6.29l-.65,7.09c-.08,0-8.3-.66-12.88,4.16-2.81,2.96-3.81,7.59-2.96,13.76l-7.05.97Z"/><path class="cls-4_bug-fixing-71" d="m264.84,176.6c-.06-.38-1.49-9.34,3.28-15.89,2.53-3.48,6.22-5.6,10.98-6.31l1.05,7.04c-2.82.42-4.87,1.54-6.25,3.43-3.01,4.11-2.04,10.5-2.03,10.57l-7.02,1.16Z"/><path class="cls-4_bug-fixing-71" d="m302.53,189.23c-3.65-5.05-7.57-7.71-11.65-7.9-6.57-.31-12.13,5.84-12.18,5.9l-5.37-4.67c.31-.36,7.7-8.8,17.83-8.34,6.37.28,12.14,3.93,17.14,10.84l-5.77,4.17Z"/><path class="cls-4_bug-fixing-71" d="m298.36,213.47c-1.24-6.13-3.72-10.17-7.36-12.03-5.87-2.99-13.41.3-13.49.34l-2.96-6.47c.43-.2,10.68-4.79,19.68-.21,5.68,2.89,9.42,8.6,11.11,16.96l-6.98,1.41Z"/><path class="cls-4_bug-fixing-71" d="m293.72,232.84l-7.05-.97c.85-6.19-.15-10.83-2.98-13.78-4.56-4.76-12.76-4.14-12.84-4.13l-.66-7.09c.47-.05,11.66-1,18.65,6.29,4.41,4.6,6.06,11.22,4.89,19.68Z"/><ellipse class="cls-12_bug-fixing-71 targetColor" cx="260.86" cy="196.3" rx="26.4" ry="31.73" style="fill: rgb(0, 0, 0);"/><ellipse class="cls-5_bug-fixing-71" cx="267.95" cy="185.15" rx="9.9" ry="11.9" transform="translate(-54.51 139.33) rotate(-26.56)"/></g></svg>